{"title":"Trainspotting + Special Feature (1996) DVDRip XviD AC3 Soup","uid":12110443,"size":2164765351,"categoryP":"video","categoryS":"movies","magnet":"?xt=urn:btih:8a892bb493b587eebd917f0b23584c1e927d91a5&amp;dn=Trainspotting+%2B+Special+Feature+%281996%29+DVDRip+XviD+AC3+Soup&amp;tr=udp%3A%2F%2Ftracker.openbittorrent.com%3A80&amp;tr=udp%3A%2F%2Fopen.demonii.com%3A1337&amp;tr=udp%3A%2F%2Ftracker.coppersurfer.tk%3A6969&amp;tr=udp%3A%2F%2Fexodus.desync.com%3A6969","seeders":3,"leechers":1,"uploader":"peaSoup","files":8,"time":1436556488,"description":" &lt;a href=&quot;http://i.imgur.com/hMGiQqH.jpg&quot; rel=&quot;nofollow&quot; target=&quot;_NEW&quot;&gt;http://i.imgur.com/hMGiQqH.jpg&lt;/a&gt;                                                         &lt;a href=&quot; http://i.imgur.com/GxdGzRm.jpg&quot; rel=&quot;nofollow&quot; target=&quot;_NEW&quot;&gt; http://i.imgur.com/GxdGzRm.jpg&lt;/a&gt;                                                       &lt;a href=&quot; http://i.imgur.com/1ZBMxCV.jpg&quot; rel=&quot;nofollow&quot; target=&quot;_NEW&quot;&gt; http://i.imgur.com/1ZBMxCV.jpg&lt;/a&gt;                                                       &lt;a href=&quot; http://i.imgur.com/5eTuHA3.jpg&quot; rel=&quot;nofollow&quot; target=&quot;_NEW&quot;&gt; http://i.imgur.com/5eTuHA3.jpg&lt;/a&gt;                                                                                  &lt;a href=&quot; http://i.imgur.com/PpZAbJP.jpg&quot; rel=&quot;nofollow&quot; target=&quot;_NEW&quot;&gt; http://i.imgur.com/PpZAbJP.jpg&lt;/a&gt;                                                                   \nFormat                      : AVI\nFormat/Info                 : Audio Video Interleave\nFormat profile              : OpenDML\nFile size                   : 1.57 GiB\nDuration                    : 1h 29mn\nOverall bit rate            : 2 502 Kbps\nMovie name                  : Trainspotting (1996) DVDRip XviD AC3 Soup\nWriting application         : Lavf56.9.100\nOriginal source form/Name   : TRAINSPOTTING\n\nVideo\nID                          : 0\nFormat                      : MPEG-4 Visual\nFormat profile              : Advanced Simple@L5\nFormat settings, BVOP       : 2\nFormat settings, QPel       : No\nFormat settings, GMC        : No warppoints\nFormat settings, Matrix     : Default (MPEG)\nMuxing mode                 : Packed bitstream\nCodec ID                    : XVID\nCodec ID/Hint               : XviD\nDuration                    : 1h 29mn\nBit rate                    : 2 042 Kbps\nWidth                       : 720 pixels\nHeight                      : 404 pixels\nDisplay aspect ratio        : 16:9\nFrame rate                  : 25.000 fps\nColor space                 : YUV\nChroma subsampling          : 4:2:0\nBit depth                   : 8 bits\nScan type                   : Progressive\nCompression mode            : Lossy\nBits/(Pixel*Frame)          : 0.281\nStream size                 : 1.28 GiB (82%)\nWriting library             : XviD 64\n\nAudio\nID                          : 1\nFormat                      : AC-3\nFormat/Info                 : Audio Coding 3\nMode extension              : CM (complete main)\nFormat settings, Endianness : Big\nCodec ID                    : 2000\nDuration                    : 1h 29mn\nBit rate mode               : Constant\nBit rate                    : 448 Kbps\nChannel(s)                  : 6 channels\nChannel positions           : Front: L C R, Side: L R, LFE\nSampling rate               : 48.0 KHz\nCompression mode            : Lossy\nStream size                 : 287 MiB (18%)\nAlignment                   : Aligned on interleaves\nInterleave, duration        : 32 ms (0.80 video frame)\n\nSPECIAL FEATURE - Memories of Trainspotting with Danny Boyle, Andrew Macdonald, John Hodge, Ewan McGregor Etc","torrent":{"xt":"urn:btih:8a892bb493b587eebd917f0b23584c1e927d91a5","amp;dn":"Trainspotting+%2B+Special+Feature+%281996%29+DVDRip+XviD+AC3+Soup","amp;tr":["udp%3A%2F%2Ftracker.openbittorrent.com%3A80","udp%3A%2F%2Fopen.demonii.com%3A1337","udp%3A%2F%2Ftracker.coppersurfer.tk%3A6969","udp%3A%2F%2Fexodus.desync.com%3A6969"],"infoHash":"8a892bb493b587eebd917f0b23584c1e927d91a5","infoHashBuffer":{"type":"Buffer","data":[138,137,43,180,147,181,135,238,189,145,127,11,35,88,76,30,146,125,145,165]},"announce":[],"urlList":[]}}